<svg width="50" height="50" viewBox="0 0 50 50" fill="none" xmlns="http://www.w3.org/2000/svg">
    <g clip-path="url(#clip0_218_14449)">
        <path
            d="M42.8594 26.1875V23.8125H45.2344V21.4219H38.0938V23.8125H40.4844V26.1875H28.5781V16.6719H33.3438V14.2813H30.9531V11.9062H28.5781V9.51562H26.1875V7.14063H23.8125V4.76562H21.4375V2.375H19.0469V0H16.6719V2.375H14.2813V4.76562H11.9062V7.14063H9.53125V9.51562H7.14063V11.9062H4.76562V14.2813H2.39062V16.6719H7.14063V26.1875H0V30.9531H2.39062V28.5625H4.76562V30.9531H7.14063V35.7188H9.53125V38.0938H14.2813V35.7188H16.6719V33.3281H19.0469V28.5625H23.8125V30.9531H28.5781V33.3281H33.3438V35.7188H35.7188V38.0938H40.4844V35.7188H42.8594V30.9531H45.2344V28.5625H47.625V30.9531H50V26.1875H42.8594ZM26.1875 26.1875H23.8125V16.6719H21.4375V26.1875H14.2813V23.8125H16.6719V21.4219H14.2813V16.6719H11.9062V26.1875H9.53125V11.9062H11.9062V9.51562H14.2813V7.14063H16.6719V4.76562H19.0469V7.14063H21.4375V9.51562H23.8125V11.9062H26.1875V26.1875Z"
            fill="#BFFB4F"/>
        <path d="M47.625 30.9531H45.2344V35.7188H47.625V30.9531Z" fill="#BFFB4F"/>
        <path d="M47.625 9.51562H45.2344V21.4219H47.625V9.51562Z" fill="#BFFB4F"/>
        <path d="M45.2344 35.7188H42.8594V40.4687H45.2344V35.7188Z" fill="#BFFB4F"/>
        <path d="M42.8594 40.4688H40.4844V42.8594H42.8594V40.4688Z" fill="#BFFB4F"/>
        <path d="M45.2344 7.14062H38.0938V9.51562H45.2344V7.14062Z" fill="#BFFB4F"/>
        <path
            d="M33.3438 42.8594V40.4688H30.9531V38.0938H23.8125V40.4688H19.0469V42.8594H16.6719V45.2344H14.2812V47.6094H19.0469V50H30.9531V47.6094H35.7188V45.2344H40.4844V42.8594H33.3438Z"
            fill="#BFFB4F"/>
        <path d="M38.0937 9.51562H35.7188V21.4219H38.0937V9.51562Z" fill="#BFFB4F"/>
        <path d="M21.4375 14.2812H14.2812V16.6719H21.4375V14.2812Z" fill="#BFFB4F"/>
        <path d="M14.2813 42.8594H9.53125V45.2344H14.2813V42.8594Z" fill="#BFFB4F"/>
        <path d="M9.53125 40.4688H7.14062V42.8594H9.53125V40.4688Z" fill="#BFFB4F"/>
        <path d="M7.14063 35.7188H4.76562V40.4687H7.14063V35.7188Z" fill="#BFFB4F"/>
        <path d="M4.76562 30.9531H2.39062V35.7188H4.76562V30.9531Z" fill="#BFFB4F"/>
    </g>
    <defs>
        <clipPath id="clip0_218_14449">
            <rect width="50" height="50" fill="white"/>
        </clipPath>
    </defs>
</svg>
