<svg width="95" height="89" viewBox="0 0 95 89" fill="none" xmlns="http://www.w3.org/2000/svg">
<path d="M37.5518 51.6438C38.6227 51.6541 39.6822 51.4234 40.6519 50.9688C41.6216 50.5143 42.4767 49.8475 43.1538 49.0178L40.878 47.4422C40.376 48.0825 39.6954 48.5595 38.9222 48.8129C38.1491 49.0664 37.3182 49.0849 36.5346 48.8662C35.751 48.6475 35.0498 48.2013 34.5197 47.5841C33.9896 46.9669 33.6544 46.2064 33.5565 45.3987C33.4586 44.591 33.6024 43.7724 33.9696 43.0465C34.3369 42.3205 34.9112 41.7197 35.6199 41.3201C36.3286 40.9205 37.1399 40.74 37.9511 40.8014C38.7624 40.8628 39.5373 41.1634 40.1777 41.6651C40.3528 41.8402 40.7029 42.0152 40.878 42.3654L43.1538 40.6147C42.4758 39.8434 41.641 39.2258 40.7051 38.8031C39.7691 38.3804 38.7538 38.1625 37.7268 38.1638C35.9166 38.0733 34.1444 38.7043 32.7989 39.9186C31.4533 41.1329 30.6443 42.8313 30.5492 44.6412C30.434 46.4239 31.0313 48.1794 32.2097 49.522C33.3882 50.8646 35.0514 51.6844 36.834 51.8013H37.0266L37.5518 51.6438Z" fill="white"/>
<path d="M63.6328 51.4697H68.0094C72.7362 51.4697 75.7122 48.8437 75.7122 44.9923C75.7122 41.1409 72.7362 38.3398 68.0094 38.3398H63.6328V51.4697ZM66.4338 48.8437V40.9658H68.0094C71.3356 40.9658 72.7362 42.5414 72.7362 44.9923C72.7362 47.4432 71.3356 48.8437 68.0094 48.8437H66.4338Z" fill="white"/>
<path d="M79.3867 51.4684H90.5908V48.8425H82.1877V45.8664H88.315V43.4155H82.1877V41.1396H90.5908V38.5137H79.3867V51.4684Z" fill="white"/>
<path d="M7.61097 70.3767C8.68187 70.387 9.74138 70.1563 10.7111 69.7018C11.6808 69.2472 12.5359 68.5804 13.213 67.7507L10.9372 66.0001C10.4352 66.6403 9.75456 67.1173 8.98145 67.3708C8.20834 67.6242 7.37744 67.6428 6.5938 67.4241C5.81016 67.2053 5.10896 66.7592 4.57887 66.1419C4.04878 65.5247 3.71359 64.7642 3.61569 63.9565C3.51779 63.1489 3.66157 62.3303 4.02885 61.6043C4.39614 60.8783 4.97043 60.2776 5.67912 59.8779C6.38781 59.4783 7.19908 59.2978 8.01035 59.3592C8.82163 59.4206 9.59648 59.7212 10.2369 60.223C10.412 60.398 10.7621 60.5731 10.9372 60.9232L13.213 59.1726C12.5351 58.4013 11.7002 57.7836 10.7643 57.3609C9.82835 56.9383 8.81297 56.7203 7.78603 56.7217C5.97669 56.7263 4.24277 57.4471 2.96337 58.7265C1.68396 60.0059 0.96315 61.7398 0.958528 63.5492C0.939943 64.4274 1.09457 65.3008 1.41359 66.1192C1.7326 66.9377 2.20975 67.6853 2.81777 68.3194C3.42579 68.9534 4.15277 69.4614 4.95718 69.8144C5.76159 70.1674 6.62766 70.3585 7.50593 70.3767H7.61097Z" fill="white"/>
<path d="M14.6133 70.1999H17.7644L19.1649 67.749H25.4673L26.6927 70.1999H29.6688L22.141 56.5449L14.6133 70.1999ZM20.3904 65.2981L22.141 61.7968L23.8917 65.2981H20.3904Z" fill="white"/>
<path d="M44.0262 70.2008L39.1244 65.299C41.9254 65.124 43.501 63.8985 43.501 61.2726C43.501 58.6466 41.5753 57.2461 38.5992 57.2461H32.2969V70.2008H35.0979V64.7739L40.1748 70.2008H44.0262ZM35.273 59.697H38.7743C39.8246 59.697 40.5249 60.2222 40.5249 61.2726C40.5747 61.6829 40.4613 62.0963 40.2092 62.4238C39.957 62.7512 39.5863 62.9665 39.1769 63.0232H35.0979L35.273 59.697Z" fill="white"/>
<path d="M48.0547 70.2008H54.7071C57.6832 70.2008 59.2588 68.9754 59.2588 66.5245C59.3513 65.8121 59.192 65.0898 58.8084 64.4825C58.4248 63.8751 57.841 63.4209 57.158 63.1983C57.6391 62.9506 58.0414 62.5736 58.3198 62.1097C58.5981 61.6457 58.7415 61.1133 58.7336 60.5723C58.7336 58.4715 57.158 57.2461 54.1819 57.2461H48.0547V70.2008ZM50.6807 61.9728V59.697H53.8318C55.0573 59.697 55.5824 60.0471 55.5824 60.9224C55.5824 61.7978 54.8822 62.1479 53.8318 62.1479L50.6807 61.9728ZM50.6807 67.5749V64.5988H54.5321C55.7575 64.5988 56.2827 65.124 56.2827 66.1744C56.2827 67.2248 55.5825 67.7499 54.5321 67.7499L50.6807 67.5749Z" fill="white"/>
<path d="M79.3867 70.2008H82.1877V61.4476L88.8402 70.2008H91.6412V57.2461H88.8402V65.9993L82.1877 57.2461H79.3867V70.2008Z" fill="white"/>
<path fill-rule="evenodd" clip-rule="evenodd" d="M39.8221 29.761C39.3524 30.0309 38.8337 30.2045 38.2962 30.2718C37.7587 30.339 37.2132 30.2985 36.6915 30.1526C36.1698 30.0068 35.6824 29.7585 35.2577 29.4222C34.833 29.0859 34.4796 28.6684 34.218 28.1941C33.9564 27.7197 33.7919 27.1981 33.7341 26.6595C33.6763 26.1209 33.7264 25.5761 33.8814 25.0571C34.0364 24.5381 34.2933 24.0551 34.6369 23.6364C34.9806 23.2177 35.4043 22.8716 35.8831 22.6184C36.02 22.531 36.167 22.4604 36.3208 22.4083C37.281 21.9724 38.3693 21.9102 39.3729 22.2339C40.3765 22.5577 41.2233 23.2441 41.7478 24.159C42.2044 25.1618 42.2593 26.3016 41.9011 27.3437C41.5429 28.3858 40.7988 29.2509 39.8221 29.761ZM41.0475 32.2119C39.3993 33.0709 37.4773 33.2399 35.7044 32.6818C33.9315 32.1236 32.453 30.8841 31.5941 29.2358C30.7351 27.5876 30.5661 25.6656 31.1242 23.8927C31.6823 22.1199 32.9219 20.6413 34.5701 19.7824C36.2255 18.9635 38.1334 18.8159 39.895 19.3705C41.6566 19.9251 43.1359 21.1389 44.0236 22.7585C44.6284 23.9117 44.8996 25.2107 44.8068 26.5095C44.714 27.8084 44.2609 29.0556 43.4984 30.1112L50.3259 38.5142C51.7358 37.8634 53.322 37.6997 54.8351 38.0488C56.3481 38.3979 57.7023 39.24 58.6845 40.4428C59.6667 41.6455 60.2213 43.1405 60.261 44.6929C60.3008 46.2452 59.8234 47.7667 58.9041 49.0181L65.7316 57.4212C67.3161 56.5635 69.1623 56.3237 70.9134 56.748C72.6645 57.1723 74.1961 58.2307 75.2122 59.7186C76.2284 61.2065 76.6569 63.0182 76.415 64.8037C76.1731 66.5891 75.2779 68.2215 73.9024 69.3853C72.527 70.5491 70.769 71.1618 68.9681 71.1049C67.1673 71.0479 65.4514 70.3254 64.1523 69.077C62.8531 67.8286 62.0628 66.143 61.9342 64.3458C61.8055 62.5487 62.3476 60.7676 63.4557 59.3469L56.6282 51.1189H56.4532C55.6474 51.518 54.7709 51.7544 53.8738 51.8146C52.9766 51.8749 52.0764 51.7578 51.2245 51.47C50.3726 51.1823 49.5858 50.7295 48.909 50.1376C48.2321 49.5457 47.6785 48.8262 47.2798 48.0202L47.1748 47.7926C46.5757 46.6183 46.339 45.2924 46.4949 43.9833C46.6507 42.6741 47.192 41.4409 48.0501 40.4399L41.0475 32.2119ZM64.8563 63.7235C64.8737 64.5369 65.132 65.3269 65.5984 65.9935C66.0648 66.6601 66.7184 67.1735 67.4766 67.4687C68.2347 67.7639 69.0634 67.8277 69.8578 67.652C70.6522 67.4763 71.3767 67.069 71.9396 66.4816C72.5025 65.8941 72.8786 65.153 73.0204 64.3519C73.1622 63.5507 73.0632 62.7255 72.736 61.9806C72.4088 61.2357 71.8681 60.6045 71.1822 60.1669C70.4964 59.7293 69.6962 59.5048 68.8827 59.5219C67.824 59.6353 66.8394 60.1191 66.1027 60.8878C65.3659 61.6566 64.9245 62.6609 64.8563 63.7235Z" fill="white"/>
</svg>
