<svg width="51" height="50" viewBox="0 0 51 50" fill="none" xmlns="http://www.w3.org/2000/svg">
    <g clip-path="url(#clip0_218_17354)">
        <path
            d="M48.3145 19.0469H45.9395V16.6562H43.5645V14.2813H41.1738V19.0469H38.7988V21.4219H36.4238V14.2813H41.1738V11.9062H29.2676V9.51562H26.8926V26.1875H3.08008V9.51562H0.705078V35.7031H3.08008V28.5625H26.8926V35.7031H17.3613V33.3281H14.9863V40.4688H17.3613V38.0937H31.6582V40.4688H34.0332V33.3281H31.6582V35.7031H29.2676V14.2813H34.0332V23.8125H36.4238V26.1875H48.3145V35.7031H50.7051V21.4219H48.3145V19.0469Z"
            fill="#BFFB4F"/>
        <path d="M43.5645 33.3281H41.1738V40.4687H43.5645V38.0937H48.3145V35.7031H43.5645V33.3281Z" fill="#BFFB4F"/>
        <path d="M41.1738 40.4688H34.0332V42.8594H41.1738V40.4688Z" fill="#BFFB4F"/>
        <path d="M38.7988 35.7031H36.4238V38.0937H38.7988V35.7031Z" fill="#BFFB4F"/>
        <path d="M41.1738 30.9531H34.0332V33.3281H41.1738V30.9531Z" fill="#BFFB4F"/>
        <path d="M14.9863 30.9531H7.8457V33.3281H14.9863V30.9531Z" fill="#BFFB4F"/>
        <path d="M14.9863 40.4688H7.8457V42.8594H14.9863V40.4688Z" fill="#BFFB4F"/>
        <path d="M12.6113 35.7031H10.2207V38.0937H12.6113V35.7031Z" fill="#BFFB4F"/>
        <path d="M24.5176 19.0469H5.4707V21.4219H24.5176V19.0469Z" fill="#BFFB4F"/>
        <path d="M24.5176 14.2812H5.4707V16.6562H24.5176V14.2812Z" fill="#BFFB4F"/>
        <path d="M7.8457 33.3281H5.4707V35.7031H3.08008V38.0937H5.4707V40.4687H7.8457V33.3281Z" fill="#BFFB4F"/>
        <path d="M26.8926 7.14062H3.08008V9.51562H26.8926V7.14062Z" fill="#BFFB4F"/>
    </g>
    <defs>
        <clipPath id="clip0_218_17354">
            <rect width="50" height="50" fill="white" transform="translate(0.705078)"/>
        </clipPath>
    </defs>
</svg>
