<svg width="51" height="50" viewBox="0 0 51 50" fill="none" xmlns="http://www.w3.org/2000/svg">
    <path d="M50.4111 11.9062H48.0205V42.8594H50.4111V11.9062Z" fill="#BFFB4F"/>
    <path
        d="M2.78613 42.8594V45.2344H5.17676V47.625H7.55176V45.2344H43.2705V47.625H45.6455V45.2344H48.0205V42.8594H2.78613Z"
        fill="#BFFB4F"/>
    <path d="M45.6455 26.1875H43.2705V28.5781H45.6455V26.1875Z" fill="#BFFB4F"/>
    <path d="M45.6455 21.4219H43.2705V23.8125H45.6455V21.4219Z" fill="#BFFB4F"/>
    <path d="M45.6455 16.6719H43.2705V19.0469H45.6455V16.6719Z" fill="#BFFB4F"/>
    <path d="M38.5049 30.9531V40.4688H45.6455V30.9531H38.5049ZM43.2705 35.7188H40.8799V33.3281H43.2705V35.7188Z"
          fill="#BFFB4F"/>
    <path d="M43.2705 47.625H7.55176V50H43.2705V47.625Z" fill="#BFFB4F"/>
    <path d="M40.8799 26.1875H38.5049V28.5781H40.8799V26.1875Z" fill="#BFFB4F"/>
    <path d="M40.8799 21.4219H38.5049V23.8125H40.8799V21.4219Z" fill="#BFFB4F"/>
    <path d="M40.8799 16.6719H38.5049V19.0469H40.8799V16.6719Z" fill="#BFFB4F"/>
    <path d="M36.1143 16.6719H33.7393V38.0937H36.1143V16.6719Z" fill="#BFFB4F"/>
    <path d="M33.7393 38.0938H7.55176V40.4688H33.7393V38.0938Z" fill="#BFFB4F"/>
    <path d="M24.2236 0H21.833V2.375H24.2236V0Z" fill="#BFFB4F"/>
    <path d="M21.833 2.375H19.458V4.76562H21.833V2.375Z" fill="#BFFB4F"/>
    <path d="M19.458 4.76562H17.0674V7.14063H19.458V4.76562Z" fill="#BFFB4F"/>
    <path d="M14.6924 4.76562H12.3174V7.14063H14.6924V4.76562Z" fill="#BFFB4F"/>
    <path d="M33.7393 14.2812H7.55176V16.6719H33.7393V14.2812Z" fill="#BFFB4F"/>
    <path d="M12.3174 2.375H9.92676V4.76562H12.3174V2.375Z" fill="#BFFB4F"/>
    <path d="M9.92676 0H7.55176V2.375H9.92676V0Z" fill="#BFFB4F"/>
    <path d="M7.55176 16.6719H5.17676V38.0937H7.55176V16.6719Z" fill="#BFFB4F"/>
    <path d="M48.0205 11.9062V9.53125H17.0674V7.14062H14.6924V9.53125H2.78613V11.9062H48.0205Z" fill="#BFFB4F"/>
    <path d="M2.78613 11.9062H0.411133V42.8594H2.78613V11.9062Z" fill="#BFFB4F"/>
</svg>
