<svg width="91" height="52" viewBox="0 0 91 52" fill="none" xmlns="http://www.w3.org/2000/svg">
<g clip-path="url(#clip0_454_962)">
<path d="M36.5518 32.6448C37.6227 32.655 38.6822 32.4244 39.6519 31.9698C40.6216 31.5153 41.4767 30.8485 42.1538 30.0188L39.878 28.4432C39.376 29.0834 38.6954 29.5604 37.9222 29.8139C37.1491 30.0674 36.3182 30.0859 35.5346 29.8672C34.751 29.6484 34.0498 29.2023 33.5197 28.5851C32.9896 27.9679 32.6544 27.2074 32.5565 26.3997C32.4586 25.592 32.6024 24.7734 32.9696 24.0474C33.3369 23.3215 33.9112 22.7207 34.6199 22.3211C35.3286 21.9215 36.1399 21.7409 36.9511 21.8024C37.7624 21.8638 38.5373 22.1643 39.1777 22.6661C39.3528 22.8412 39.7029 23.0162 39.878 23.3664L42.1538 21.6157C41.4758 20.8444 40.641 20.2267 39.7051 19.8041C38.7691 19.3814 37.7538 19.1634 36.7268 19.1648C34.9166 19.0742 33.1444 19.7053 31.7989 20.9196C30.4533 22.1339 29.6443 23.8322 29.5492 25.6422C29.434 27.4249 30.0313 29.1804 31.2097 30.523C32.3882 31.8656 34.0514 32.6854 35.834 32.8023H36.0266L36.5518 32.6448Z" fill="#BFFB4F"/>
<path d="M62.6328 32.4697H67.0094C71.7362 32.4697 74.7122 29.8437 74.7122 25.9923C74.7122 22.1409 71.7362 19.3398 67.0094 19.3398H62.6328V32.4697ZM65.4338 29.8437V21.9658H67.0094C70.3356 21.9658 71.7362 23.5414 71.7362 25.9923C71.7362 28.4432 70.3356 29.8437 67.0094 29.8437H65.4338Z" fill="#BFFB4F"/>
<path d="M78.3867 32.4704H89.5908V29.8444H81.1877V26.8683H87.315V24.4174H81.1877V22.1416H89.5908V19.5156H78.3867V32.4704Z" fill="#BFFB4F"/>
<path d="M6.61097 51.3738C7.68187 51.384 8.74138 51.1534 9.71108 50.6988C10.6808 50.2443 11.5359 49.5775 12.213 48.7478L9.93719 46.9972C9.43515 47.6374 8.75456 48.1144 7.98145 48.3678C7.20834 48.6213 6.37744 48.6398 5.5938 48.4211C4.81016 48.2024 4.10896 47.7562 3.57887 47.139C3.04878 46.5218 2.71359 45.7613 2.61569 44.9536C2.51779 44.1459 2.66157 43.3274 3.02885 42.6014C3.39614 41.8754 3.97043 41.2746 4.67912 40.875C5.38781 40.4754 6.19908 40.2949 7.01035 40.3563C7.82163 40.4177 8.59648 40.7183 9.23694 41.22C9.412 41.3951 9.76213 41.5702 9.93719 41.9203L12.213 40.1697C11.5351 39.3983 10.7002 38.7807 9.76427 38.358C8.82835 37.9353 7.81297 37.7174 6.78603 37.7188C4.97669 37.7234 3.24277 38.4442 1.96337 39.7236C0.68396 41.003 -0.0368502 42.7369 -0.0414718 44.5463C-0.0600573 45.4245 0.0945747 46.2978 0.413589 47.1163C0.732603 47.9348 1.20975 48.6824 1.81777 49.3164C2.42579 49.9505 3.15277 50.4585 3.95718 50.8115C4.76159 51.1645 5.62766 51.3556 6.50593 51.3738H6.61097Z" fill="#BFFB4F"/>
<path d="M13.6133 51.2019H16.7644L18.1649 48.751H24.4673L25.6927 51.2019H28.6688L21.141 37.5469L13.6133 51.2019ZM19.3904 46.3001L21.141 42.7988L22.8917 46.3001H19.3904Z" fill="#BFFB4F"/>
<path d="M43.0262 51.2008L38.1244 46.299C40.9254 46.124 42.501 44.8985 42.501 42.2726C42.501 39.6466 40.5753 38.2461 37.5992 38.2461H31.2969V51.2008H34.0979V45.7739L39.1748 51.2008H43.0262ZM34.273 40.697H37.7743C38.8246 40.697 39.5249 41.2222 39.5249 42.2726C39.5747 42.6829 39.4613 43.0963 39.2092 43.4238C38.957 43.7512 38.5863 43.9665 38.1769 44.0232H34.0979L34.273 40.697Z" fill="#BFFB4F"/>
<path d="M47.0547 51.2008H53.7071C56.6832 51.2008 58.2588 49.9754 58.2588 47.5245C58.3513 46.8121 58.192 46.0898 57.8084 45.4825C57.4248 44.8751 56.841 44.4209 56.158 44.1983C56.6391 43.9506 57.0414 43.5736 57.3198 43.1097C57.5981 42.6457 57.7415 42.1133 57.7336 41.5723C57.7336 39.4715 56.158 38.2461 53.1819 38.2461H47.0547V51.2008ZM49.6807 42.9728V40.697H52.8318C54.0573 40.697 54.5824 41.0471 54.5824 41.9224C54.5824 42.7978 53.8822 43.1479 52.8318 43.1479L49.6807 42.9728ZM49.6807 48.5749V45.5988H53.5321C54.7575 45.5988 55.2827 46.124 55.2827 47.1744C55.2827 48.2248 54.5825 48.7499 53.5321 48.7499L49.6807 48.5749Z" fill="#BFFB4F"/>
<path d="M78.3867 51.2008H81.1877V42.4476L87.8402 51.2008H90.6412V38.2461H87.8402V46.9993L81.1877 38.2461H78.3867V51.2008Z" fill="#BFFB4F"/>
<path fill-rule="evenodd" clip-rule="evenodd" d="M38.8221 10.7601C38.3524 11.0299 37.8337 11.2036 37.2962 11.2708C36.7587 11.338 36.2132 11.2975 35.6915 11.1517C35.1698 11.0058 34.6824 10.7575 34.2577 10.4212C33.833 10.085 33.4796 9.66746 33.218 9.19312C32.9564 8.71877 32.7919 8.19708 32.7341 7.65848C32.6763 7.11988 32.7264 6.57516 32.8814 6.05612C33.0364 5.53708 33.2933 5.05412 33.6369 4.63541C33.9806 4.2167 34.4043 3.87065 34.8831 3.61743C35.02 3.53001 35.167 3.45947 35.3208 3.40735C36.281 2.97138 37.3693 2.90919 38.3729 3.23294C39.3765 3.55669 40.2233 4.2431 40.7478 5.158C41.2044 6.16086 41.2593 7.30062 40.9011 8.34271C40.5429 9.3848 39.7988 10.2499 38.8221 10.7601ZM40.0475 13.211C38.3993 14.0699 36.4773 14.2389 34.7044 13.6808C32.9315 13.1227 31.453 11.8831 30.5941 10.2349C29.7351 8.5866 29.5661 6.66463 30.1242 4.89176C30.6823 3.11889 31.9219 1.64034 33.5701 0.78139C35.2255 -0.0375091 37.1334 -0.185078 38.895 0.369514C40.6566 0.924106 42.1359 2.13796 43.0236 3.75748C43.6284 4.91069 43.8996 6.20968 43.8068 7.50853C43.714 8.80738 43.2609 10.0546 42.4984 11.1102L49.3259 19.5133C50.7358 18.8625 52.322 18.6987 53.8351 19.0478C55.3481 19.3969 56.7023 20.2391 57.6845 21.4418C58.6667 22.6445 59.2213 24.1396 59.261 25.6919C59.3008 27.2442 58.8234 28.7657 57.9041 30.0171L64.7316 38.4202C66.3161 37.5625 68.1623 37.3227 69.9134 37.747C71.6645 38.1714 73.1961 39.2297 74.2122 40.7176C75.2284 42.2055 75.6569 44.0172 75.415 45.8027C75.1731 47.5881 74.2779 49.2205 72.9024 50.3843C71.527 51.5482 69.769 52.1608 67.9681 52.1039C66.1673 52.0469 64.4514 51.3245 63.1523 50.0761C61.8531 48.8277 61.0628 47.142 60.9342 45.3448C60.8055 43.5477 61.3476 41.7666 62.4557 40.3459L55.6282 32.1179H55.4532C54.6474 32.517 53.7709 32.7534 52.8738 32.8137C51.9766 32.8739 51.0764 32.7568 50.2245 32.4691C49.3726 32.1813 48.5858 31.7285 47.909 31.1366C47.2321 30.5447 46.6785 29.8252 46.2798 29.0193L46.1748 28.7917C45.5757 27.6173 45.339 26.2914 45.4949 24.9823C45.6507 23.6732 46.192 22.4399 47.0501 21.439L40.0475 13.211ZM63.8563 44.7225C63.8737 45.5359 64.132 46.3259 64.5984 46.9925C65.0648 47.6591 65.7184 48.1725 66.4766 48.4677C67.2347 48.7629 68.0634 48.8267 68.8578 48.651C69.6522 48.4753 70.3767 48.068 70.9396 47.4806C71.5025 46.8932 71.8786 46.152 72.0204 45.3509C72.1622 44.5497 72.0632 43.7246 71.736 42.9796C71.4088 42.2347 70.8681 41.6036 70.1822 41.1659C69.4964 40.7283 68.6962 40.5039 67.8827 40.521C66.824 40.6343 65.8394 41.1181 65.1027 41.8869C64.3659 42.6556 63.9245 43.6599 63.8563 44.7225Z" fill="#BFFB4F"/>
</g>
<defs>
<clipPath id="clip0_454_962">
<rect width="91" height="52" fill="white"/>
</clipPath>
</defs>
</svg>
